<svg xmlns="http://www.w3.org/2000/svg" width="200" height="40" viewBox="0 0 1088.36 359.31"><path d="M225.73,19.8a71.08,71.08,0,0,0-21.8-14.52,69,69,0,0,0-51.54-.51,69.78,69.78,0,0,0-21.21,13.45l-8.34,7.72-8.19-7.87A64.32,64.32,0,0,0,93.85,4.8C77.55-1.71,58-1.57,42.05,5.29A71.35,71.35,0,0,0,20.25,19.8,69.59,69.59,0,0,0,5.44,41.36,64.07,64.07,0,0,0,0,67.64v163H27.66l.22-169.33A41.86,41.86,0,0,1,41.69,37.13,40.92,40.92,0,0,1,109.18,68V230.64h27.66l.08-166.76a40.8,40.8,0,0,1,67.72-26.23,41.21,41.21,0,0,1,13.54,24.88l.14,1.84V230.64H246v-163a64.4,64.4,0,0,0-5.43-26.24A69.57,69.57,0,0,0,225.73,19.8Z" fill="#fff"/><path d="M616.53,78.54a90.07,90.07,0,0,0-28.35-19.07c-21.41-9.18-47.94-9.18-69.35,0a89,89,0,0,0-47.45,47.45,87.63,87.63,0,0,0-6.9,34.67v89h27.66v-89A60.85,60.85,0,0,1,529.6,85.06a62.24,62.24,0,0,1,47.79,0,61.21,61.21,0,0,1,37.46,56.58v89h27.66v-89A87.51,87.51,0,0,0,635.6,107,90.2,90.2,0,0,0,616.53,78.54Z" fill="#fff"/><path d="M419.73,78.55a89.58,89.58,0,0,0-28.36-19.08,90.49,90.49,0,0,0-69.35,0,88.91,88.91,0,0,0-47.44,47.44,90.49,90.49,0,0,0,0,69.35A88.88,88.88,0,0,0,322,223.7c21.39,9.18,48,9.17,69.35,0a89,89,0,0,0,47.45-47.45,89.11,89.11,0,0,0-19.09-97.7Zm-6.46,86.93A61.5,61.5,0,1,1,332.79,85a62.3,62.3,0,0,1,47.78,0,61.58,61.58,0,0,1,32.7,80.48Z" fill="#fff"/><path d="M987,150.72l-12.38-9.56L987,131.63a115.7,115.7,0,0,0,32.6-39.4,109.92,109.92,0,0,0,11.44-39.67h-28.71a83.06,83.06,0,0,1-6,21.64,86.86,86.86,0,0,1-45.88,45.89,84.3,84.3,0,0,1-33.7,6.86h-12V0H877.14V230.64h27.65V155.82h12a86.71,86.71,0,0,1,86,74.78h29.11a109.88,109.88,0,0,0-11.62-39.84A119,119,0,0,0,987,150.72Z" fill="#fff"/><rect x="1060.7" width="27.66" height="230.61" fill="#fff"/><path d="M831.59,162.35c.34-1.2.77-2.37,1.06-3.6a87.31,87.31,0,1,0-31.81,48.69,28.8,28.8,0,0,0,16.58,11.27c.54.13,1.08.13,1.63.23v120.7a20.11,20.11,0,0,0,16.06,19.67v-142a29,29,0,0,0-3.52-55Zm5.33,31.15a13,13,0,1,1-9.6-15.71,13,13,0,0,1,9.6,15.71v0Zm-103.74,6.06a63.06,63.06,0,1,1,76.11-46.48h0A63.14,63.14,0,0,1,733.18,199.56Z" fill="#fff"/></svg>