<svg xmlns="http://www.w3.org/2000/svg" width="100" height="50" viewBox="0 0 2000 2000"><path d="M681.55,840.16a71.2,71.2,0,0,0-21.8-14.52,69,69,0,0,0-51.54-.51A69.73,69.73,0,0,0,587,838.58l-8.34,7.72-8.19-7.87a64.37,64.37,0,0,0-20.8-13.27c-16.3-6.51-35.89-6.37-51.8.49a71.11,71.11,0,0,0-21.8,14.51,69.53,69.53,0,0,0-14.81,21.56A64.09,64.09,0,0,0,455.82,888v163h27.66l.22-169.33a41.86,41.86,0,0,1,13.81-24.18A40.92,40.92,0,0,1,565,888.37V1051h27.66l.08-166.76a40.43,40.43,0,0,1,13.09-25.91,40.72,40.72,0,0,1,54.63-.32A41.21,41.21,0,0,1,674,882.89l.14,1.84V1051H701.8V888a64.31,64.31,0,0,0-5.43-26.24A69.55,69.55,0,0,0,681.55,840.16Z" fill="#fff"/><path d="M1072.35,898.9A90.18,90.18,0,0,0,1044,879.83c-21.41-9.18-47.94-9.18-69.35,0a89,89,0,0,0-47.45,47.45,87.52,87.52,0,0,0-6.9,34.67v89h27.66V962a60.85,60.85,0,0,1,37.46-56.58,62.24,62.24,0,0,1,47.79,0A61.22,61.22,0,0,1,1070.67,962v89h27.66V962a87.43,87.43,0,0,0-6.91-34.68A90.18,90.18,0,0,0,1072.35,898.9Z" fill="#fff"/><path d="M875.55,898.91a89.77,89.77,0,0,0-28.36-19.08,90.46,90.46,0,0,0-69.35,0,88.93,88.93,0,0,0-47.44,47.44,90.46,90.46,0,0,0,0,69.35,88.85,88.85,0,0,0,47.44,47.44c21.39,9.18,48,9.17,69.35,0a89.06,89.06,0,0,0,47.45-47.45,90.52,90.52,0,0,0,0-69.35A89.87,89.87,0,0,0,875.55,898.91Zm-6.46,86.93a61.5,61.5,0,1,1-80.48-80.47,62.3,62.3,0,0,1,47.78,0,61.58,61.58,0,0,1,32.7,80.48Z" fill="#fff"/><path d="M1442.83,971.08l-12.38-9.56,12.41-9.53a115.63,115.63,0,0,0,32.6-39.4,110,110,0,0,0,11.44-39.67h-28.71a83.05,83.05,0,0,1-6,21.64,86.92,86.92,0,0,1-45.88,45.89,84.3,84.3,0,0,1-33.7,6.86h-12V820.36h-27.65V1051h27.65V976.18h12A85.79,85.79,0,0,1,1406.4,983a85.92,85.92,0,0,1,46.18,46.17,84.84,84.84,0,0,1,6,21.79h29.11a110,110,0,0,0-11.62-39.84A119.11,119.11,0,0,0,1442.83,971.08Z" fill="#fff"/><rect x="1516.52" y="820.36" width="27.66" height="230.61" fill="#fff"/><path d="M1287.41,982.71c.34-1.2.77-2.37,1.06-3.6a87.31,87.31,0,1,0-31.81,48.69,28.82,28.82,0,0,0,16.58,11.27c.54.13,1.08.13,1.63.23V1160a20.11,20.11,0,0,0,16.06,19.67V1037.71a29,29,0,0,0-3.52-55Zm5.33,31.15a13,13,0,1,1-9.6-15.71A13,13,0,0,1,1292.74,1013.86ZM1189,1019.92a63.06,63.06,0,1,1,76.11-46.47A63.13,63.13,0,0,1,1189,1019.92Z" fill="#fff"/></svg>